{"glyphs":{":":{"x_min":0,"x_max":299,"ha":299,"o":"m 208 417 q 164 417 164 458 l 166 485 q 166 516 182 533 q 198 551 225 551 q 267 551 267 497 q 267 417 208 417 z m 159 60 q 116 60 116 101 l 118 152 q 118 181 137 196 q 155 212 178 212 q 220 212 220 151 q 220 60 159 60 z"},"$":{"x_min":0,"x_max":693,"ha":693,"o":"m 469 716 l 471 716 q 526 716 586 697 q 646 678 646 649 q 646 634 634 619 q 622 604 595 604 q 572 604 528 614 q 474 626 454 624 l 423 425 q 514 417 566 370 q 618 322 618 251 q 618 159 551 83 q 484 8 352 -20 l 332 -149 q 329 -167 314 -180 q 300 -193 281 -193 q 237 -193 245 -150 l 264 -26 q 44 -22 44 81 q 44 142 93 142 q 116 142 134 124 q 168 90 197 79 q 225 68 279 66 l 323 343 l 319 343 q 252 343 197 377 q 142 412 142 474 q 142 545 213 610 q 283 675 380 702 l 395 796 q 398 814 413 827 q 428 840 447 840 q 488 840 482 799 z m 365 608 q 300 585 275 551 q 250 517 250 488 q 250 447 337 433 z m 368 76 q 435 99 475 141 q 516 183 516 228 q 516 300 408 330 z"},"?":{"x_min":0,"x_max":524,"ha":524,"o":"m 235 284 l 367 372 q 447 426 447 491 q 447 539 405 580 q 362 622 308 622 q 278 622 224 590 q 173 559 161 559 q 143 559 131 572 q 119 585 119 604 q 119 646 200 684 q 280 722 324 722 q 414 722 479 656 q 544 590 544 507 q 544 453 515 395 q 486 338 360 258 q 276 203 243 170 q 223 150 203 150 q 185 150 172 163 q 160 175 160 194 q 160 230 235 284 z m 98 7 q 98 34 120 65 q 142 96 174 96 q 214 96 214 56 q 214 21 194 -7 q 173 -35 146 -35 q 127 -35 113 -22 q 98 -10 98 7 z"},"<":{"x_min":0,"x_max":381,"ha":381,"o":"m 192 300 q 216 281 249 238 q 288 188 303 173 q 316 160 316 146 q 316 127 301 111 q 285 95 265 95 q 251 95 240 104 q 228 113 169 186 q 126 238 85 255 q 54 267 54 291 q 54 318 95 336 q 145 359 207 415 l 302 499 q 324 518 343 518 q 359 518 369 507 q 379 496 379 480 q 379 467 373 456 q 366 446 313 400 q 260 354 192 300 z"},"'":{"x_min":0,"x_max":388,"ha":388,"o":"m 274 557 q 237 557 237 586 q 237 594 242 625 q 244 636 248 689 q 256 811 313 811 q 350 811 350 776 q 350 767 343 737 q 335 706 332 663 q 328 604 315 580 q 302 557 274 557 z"},"=":{"x_min":0,"x_max":510,"ha":510,"o":"m 457 487 q 494 487 494 454 q 494 400 443 400 l 215 401 q 207 401 162 398 q 111 396 111 433 q 111 465 134 477 q 158 488 229 488 z m 311 224 l 367 223 q 388 223 406 223 q 424 224 435 216 q 445 208 445 189 q 445 136 394 136 l 354 136 l 202 139 q 185 139 157 137 q 122 135 114 135 q 75 135 75 167 q 75 201 97 214 q 120 226 215 226 q 246 226 311 224 z"},"a":{"x_min":0,"x_max":512,"ha":512,"o":"m 373 25 q 268 -26 223 -26 q 40 -26 40 148 q 40 310 142 410 q 245 510 367 510 q 414 510 465 486 q 515 461 515 429 q 515 409 502 398 q 492 379 474 288 q 457 197 457 157 q 457 107 482 21 l 484 13 q 473 -32 430 -32 q 422 -32 402 -12 q 382 7 373 25 z m 409 405 q 378 423 360 423 q 278 423 208 349 q 137 276 137 167 q 137 59 230 59 q 303 59 367 113 q 375 317 409 405 z"},"L":{"x_min":0,"x_max":551,"ha":551,"o":"m 147 55 q 275 54 480 115 q 488 117 495 117 q 536 117 536 75 q 536 44 503 23 q 471 2 342 -21 q 213 -45 134 -45 q 84 -45 66 -29 q 47 -13 47 19 q 47 31 49 45 l 84 207 q 135 446 176 703 q 179 724 196 739 q 212 753 232 753 q 274 753 274 712 q 274 699 243 522 q 212 346 180 201 l 161 126 q 159 117 154 88 q 150 71 147 55 z"},"3":{"x_min":0,"x_max":610,"ha":610,"o":"m 454 398 q 556 360 556 251 q 556 139 474 58 q 393 -22 283 -22 q 201 -22 147 13 q 94 49 83 108 l 82 117 q 80 136 97 153 q 115 171 140 171 q 160 171 170 153 l 187 119 q 211 71 298 71 q 358 71 406 112 q 455 153 455 217 q 455 276 413 312 q 371 347 298 354 q 250 359 250 391 q 250 426 300 442 l 421 471 q 455 479 479 507 q 504 534 504 574 q 504 609 472 630 q 441 651 385 651 q 351 651 318 635 l 257 601 q 236 590 230 590 q 212 590 201 602 q 189 614 189 631 q 189 673 268 709 q 346 745 388 745 q 487 745 540 705 q 594 664 594 592 q 594 443 454 398 z"},";":{"x_min":0,"x_max":299,"ha":299,"o":"m 209 414 q 166 414 166 454 q 166 485 167 500 q 169 515 185 532 q 200 549 226 549 q 270 549 270 495 q 270 414 209 414 z m 24 -62 q 24 -23 80 43 q 136 109 163 109 q 180 109 191 98 q 202 87 202 72 q 202 52 158 8 q 116 -35 110 -53 q 99 -95 60 -95 q 24 -95 24 -62 z"},"J":{"x_min":0,"x_max":665,"ha":665,"o":"m 554 638 l 547 580 q 538 507 507 358 q 476 209 439 110 q 403 10 367 -25 q 330 -59 285 -59 q 202 -59 129 0 q 56 59 56 134 q 56 220 117 220 q 159 220 159 178 l 157 152 q 157 113 205 78 q 253 42 301 42 q 343 42 394 285 q 446 528 451 600 q 452 612 455 632 l 400 632 q 386 632 368 633 l 334 634 q 320 634 310 634 q 301 633 290 638 q 279 642 272 652 q 266 663 266 676 q 266 735 343 735 q 360 735 392 733 l 419 732 q 464 730 533 736 q 596 740 626 740 q 729 740 729 691 q 729 669 712 651 q 695 632 672 632 l 610 639 l 584 639 q 570 639 554 638 z"},"V":{"x_min":0,"x_max":650,"ha":650,"o":"m 346 139 l 536 501 l 597 621 q 610 647 646 698 q 683 750 714 750 q 733 750 745 738 q 757 725 757 708 q 757 687 742 669 q 704 622 677 574 l 623 467 l 436 112 q 410 62 384 21 q 357 -20 344 -30 q 332 -39 314 -39 q 292 -39 279 -25 q 267 -11 246 109 q 224 229 204 426 l 187 561 q 178 633 178 671 q 178 711 198 727 q 218 743 237 743 q 273 743 278 703 l 283 618 l 322 293 q 332 211 346 139 z"},"\"":{"x_min":0,"x_max":424,"ha":424,"o":"m 165 455 q 128 455 128 506 q 128 538 147 635 l 164 732 q 167 750 182 763 q 196 775 214 775 q 251 775 251 740 q 251 731 235 638 q 219 559 218 535 q 216 489 204 472 q 191 455 165 455 z m 430 687 l 395 497 q 387 453 345 453 q 306 453 313 496 l 344 690 q 353 744 368 758 q 383 773 403 773 q 440 773 440 738 q 440 727 432 696 q 431 690 430 687 z"},"7":{"x_min":0,"x_max":610,"ha":610,"o":"m 608 586 q 535 514 463 406 l 343 211 q 332 192 284 99 q 243 18 222 -7 q 200 -32 177 -32 q 160 -32 148 -21 q 136 -10 136 7 q 136 28 182 109 l 334 378 q 353 411 408 490 q 464 569 522 625 l 534 635 l 180 643 q 139 644 139 679 q 139 704 156 720 q 172 736 195 736 q 281 736 379 732 q 502 729 564 729 l 653 729 q 701 729 701 703 q 701 679 661 638 z"},"S":{"x_min":0,"x_max":693,"ha":693,"o":"m 132 168 q 156 168 170 141 q 189 104 204 91 q 218 79 249 71 q 280 63 322 63 q 417 63 494 110 q 570 158 570 229 q 570 278 517 309 q 464 340 375 343 q 290 347 242 380 q 195 412 195 468 q 195 562 307 639 q 419 716 526 716 q 582 716 641 697 q 701 678 701 649 q 701 634 689 619 q 677 604 650 604 q 628 604 583 614 q 537 625 516 625 q 427 625 365 581 q 304 538 304 489 q 304 461 338 448 q 371 435 471 426 q 566 419 620 370 q 673 322 673 251 q 673 133 564 53 q 455 -28 307 -28 q 212 -28 143 9 q 74 46 74 106 q 74 139 92 153 q 109 168 132 168 z"},"}":{"x_min":0,"x_max":366,"ha":366,"o":"m 257 280 q 233 293 220 326 q 206 360 206 384 q 206 398 227 499 q 248 600 248 628 q 248 665 231 682 q 215 699 173 702 q 116 705 116 733 q 116 760 144 777 q 172 793 203 793 q 254 793 296 758 q 337 724 337 642 q 337 615 332 583 l 313 485 l 295 375 q 319 367 349 334 q 378 301 378 277 q 378 252 324 217 q 297 200 284 183 q 271 166 268 154 q 265 141 264 104 q 259 -11 194 -99 q 130 -188 54 -188 q 7 -188 -4 -177 q -15 -167 -15 -151 q -15 -121 1 -108 q 17 -96 68 -96 q 88 -96 108 -74 q 128 -52 147 -10 q 166 33 169 56 q 172 80 176 140 q 180 201 257 280 z"},"Z":{"x_min":0,"x_max":693,"ha":693,"o":"m 634 566 q 551 515 398 346 l 158 62 l 349 69 q 526 75 540 75 q 616 75 643 67 q 669 59 669 36 q 669 9 652 -6 q 634 -21 609 -21 q 595 -21 566 -19 l 542 -18 l 78 -25 q 28 -25 28 13 q 28 49 72 105 l 351 423 q 469 557 590 647 l 417 637 l 219 637 l 183 637 q 165 637 154 646 q 143 656 143 674 q 143 700 159 718 q 175 737 232 737 q 275 737 331 730 q 389 723 431 723 q 483 723 544 727 q 620 732 657 732 q 777 732 777 690 q 777 657 707 611 z"},"x":{"x_min":0,"x_max":590,"ha":590,"o":"m 499 352 l 399 266 l 526 58 q 534 45 534 33 q 534 13 515 -4 q 497 -21 477 -21 q 465 -21 457 -15 q 449 -9 411 49 q 374 107 320 198 l 209 100 l 126 30 q 93 1 76 1 q 60 1 48 14 q 36 27 36 43 q 36 72 102 124 q 147 159 154 165 l 275 274 l 225 366 q 194 423 171 447 q 158 461 158 477 q 158 497 175 515 q 193 533 212 533 q 240 533 287 458 l 353 341 l 462 429 q 532 486 557 517 q 576 540 598 540 q 615 540 627 527 q 640 515 640 498 q 640 470 582 419 z"},")":{"x_min":0,"x_max":366,"ha":366,"o":"m 63 -211 q 49 -211 38 -200 q 27 -190 27 -175 q 27 -166 35 -153 q 43 -139 89 -109 q 187 -44 240 100 q 293 244 293 384 q 293 463 280 521 q 267 579 252 608 q 237 637 194 689 q 172 719 172 735 q 172 752 188 768 q 204 784 223 784 q 246 784 292 731 q 337 679 365 584 q 392 490 392 393 q 392 259 340 104 q 287 -52 197 -132 q 106 -211 63 -211 z"},"&":{"x_min":0,"x_max":654,"ha":654,"o":"m 424 444 q 450 357 506 237 q 522 267 530 292 q 547 348 561 372 q 576 395 596 395 q 630 395 630 351 q 630 317 611 261 q 591 205 549 148 q 607 26 607 1 q 607 -15 590 -31 q 574 -46 554 -46 q 532 -46 521 -21 l 480 76 q 366 -20 244 -20 q 159 -20 105 29 q 51 79 51 150 q 51 215 95 291 q 139 366 323 476 q 315 515 315 553 q 315 649 365 707 q 415 764 475 764 q 521 764 547 735 q 574 706 574 658 q 574 545 424 444 z m 405 529 q 485 589 485 646 q 485 676 461 676 q 439 676 421 648 q 403 621 403 569 q 403 550 405 529 z m 347 396 q 140 279 140 166 q 140 124 173 95 q 206 67 258 67 q 357 67 442 151 q 413 208 347 396 z"},"_":{"x_min":0,"x_max":627,"ha":627,"o":"m 448 -168 q 414 -168 344 -166 q 274 -164 241 -164 l 24 -164 l -43 -168 l -29 -78 l 31 -78 q 67 -78 116 -77 l 263 -77 q 298 -77 366 -79 q 435 -82 469 -82 l 633 -78 l 619 -168 z"},"v":{"x_min":0,"x_max":486,"ha":486,"o":"m 296 25 q 289 -20 245 -20 q 210 -20 200 22 l 157 221 l 105 445 q 103 453 103 467 q 103 480 120 498 q 138 516 162 516 q 191 516 199 486 l 269 145 q 324 231 397 371 q 449 476 467 494 q 484 513 504 513 q 523 513 535 500 q 547 488 547 471 q 547 452 433 256 z"},"O":{"x_min":0,"x_max":798,"ha":798,"o":"m 79 225 q 79 317 132 436 q 185 555 295 647 q 405 740 535 740 q 812 740 812 509 q 812 319 681 145 q 549 -30 369 -30 q 240 -30 159 43 q 79 115 79 225 z m 179 242 q 179 166 237 118 q 294 70 385 70 q 514 70 613 208 q 711 346 711 493 q 711 576 664 608 q 617 640 519 640 q 387 640 283 504 q 179 368 179 242 z"},"(":{"x_min":0,"x_max":366,"ha":366,"o":"m 375 689 l 322 644 q 259 590 199 442 q 140 294 140 137 q 140 70 160 -2 q 180 -74 247 -126 q 268 -146 268 -164 q 268 -183 252 -197 q 237 -211 219 -211 q 176 -211 109 -128 q 43 -45 43 125 q 43 323 118 484 q 194 645 271 715 q 349 784 376 784 q 391 784 402 772 q 414 760 414 744 q 414 726 375 689 z"},"C":{"x_min":0,"x_max":603,"ha":603,"o":"m 602 719 q 623 744 649 744 q 686 744 686 687 q 686 604 668 576 q 651 548 621 548 q 590 548 580 584 q 569 621 557 624 q 545 628 511 628 q 425 628 299 479 q 173 330 173 215 q 173 165 206 126 q 238 88 291 88 q 333 88 374 104 q 415 121 493 172 q 524 192 538 192 q 556 192 568 179 q 580 167 580 148 q 580 134 570 119 q 561 104 501 65 q 441 26 385 7 q 329 -12 275 -12 q 186 -12 130 50 q 74 113 74 198 q 74 354 232 541 q 391 728 526 728 q 580 728 602 719 z"},"W":{"x_min":0,"x_max":1040,"ha":1040,"o":"m 639 2 q 625 62 625 98 q 625 163 620 309 q 612 470 616 547 q 551 393 438 173 q 397 96 376 44 q 380 36 380 27 q 380 5 358 -11 q 337 -27 312 -27 q 245 -27 255 32 l 250 94 l 234 333 q 229 407 181 680 q 176 700 188 722 q 201 745 238 745 q 258 745 272 729 q 287 714 301 620 q 315 526 326 396 l 342 171 q 410 288 500 484 q 565 629 600 680 q 634 730 664 730 q 693 730 703 707 q 713 685 713 600 q 713 556 710 496 q 709 455 713 303 l 720 102 l 883 398 l 959 542 q 967 558 996 629 q 1041 745 1093 745 q 1136 745 1136 708 q 1136 693 1112 647 l 1084 594 l 1043 507 l 842 155 l 788 56 q 753 -7 744 -20 q 734 -32 720 -40 q 707 -47 689 -47 q 665 -47 649 -32 q 634 -18 639 2 z"},"A":{"x_min":0,"x_max":731,"ha":731,"o":"m 544 254 q 490 248 410 230 l 276 203 q 175 26 156 8 q 136 -11 111 -11 q 93 -11 80 1 q 68 13 68 30 q 68 56 171 216 q 166 225 166 238 q 166 284 222 296 q 285 389 417 556 q 548 722 575 722 q 613 722 619 668 l 623 504 l 643 165 l 658 87 q 665 55 665 40 q 665 19 646 2 q 628 -15 606 -15 q 574 -15 560 50 q 545 114 544 254 z m 528 543 l 352 318 q 400 331 538 355 z"},"f":{"x_min":0,"x_max":508,"ha":508,"o":"m 504 687 q 444 687 406 646 q 367 605 346 522 l 339 492 q 423 498 448 498 q 525 498 518 449 q 512 415 473 407 q 465 405 455 405 q 444 404 433 404 q 411 405 321 398 l 299 287 q 296 271 293 249 q 291 226 286 195 q 282 165 279 142 q 276 120 274 105 q 259 14 240 -39 q 226 -78 189 -78 q 179 -78 170 -75 q 162 -71 156 -65 q 151 -59 148 -51 q 146 -42 147 -33 q 148 -31 148 -28 q 148 -26 150 -23 q 161 9 169 44 q 177 78 183 115 l 202 249 l 224 390 q 193 388 174 386 q 154 385 146 385 q 121 385 111 397 q 101 409 105 433 q 112 481 198 483 l 245 485 q 248 499 253 517 q 257 536 264 559 q 294 666 344 719 q 406 781 513 781 q 583 781 575 733 q 567 687 504 687 z"},"Q":{"x_min":0,"x_max":876,"ha":876,"o":"m 560 -23 q 472 -57 391 -57 q 253 -57 165 44 q 77 145 77 268 q 77 453 229 596 q 380 740 578 740 q 725 740 800 652 q 875 563 875 413 q 875 271 824 184 q 774 97 664 28 l 754 -70 l 809 -124 q 822 -137 822 -156 q 822 -178 803 -196 q 785 -214 763 -214 q 741 -214 660 -130 z m 478 53 q 404 129 404 174 q 404 197 422 214 q 441 232 463 232 q 488 232 501 208 q 546 139 593 96 q 676 140 724 203 q 771 266 771 391 q 771 504 719 572 q 667 639 562 639 q 412 639 295 530 q 179 421 179 285 q 179 193 245 118 q 310 44 407 44 q 441 44 478 53 z"},"w":{"x_min":0,"x_max":684,"ha":684,"o":"m 393 316 l 338 223 l 232 21 q 222 2 208 -7 q 187 -37 157 -37 q 129 -37 116 37 q 103 111 105 314 l 105 387 q 105 474 126 491 q 147 508 167 508 q 185 508 197 498 q 208 488 208 444 q 208 427 206 396 l 202 325 l 196 105 q 261 230 363 452 q 389 506 428 506 q 458 506 466 471 q 474 436 474 270 q 474 147 479 78 l 535 211 l 640 477 q 652 507 687 507 q 707 507 719 495 q 730 483 730 466 q 730 456 693 366 q 656 275 609 171 q 562 67 537 27 q 511 -14 493 -27 q 474 -40 455 -40 q 430 -40 410 0 q 391 39 391 207 z"},"-":{"x_min":0,"x_max":417,"ha":417,"o":"m 124 225 q 88 225 88 253 q 88 301 136 301 q 185 301 253 304 q 314 308 369 308 q 407 308 407 279 q 407 244 375 235 q 344 225 124 225 z"},"E":{"x_min":0,"x_max":625,"ha":625,"o":"m 281 653 q 281 606 239 416 l 457 437 q 548 446 573 446 q 617 446 617 405 q 617 353 563 346 l 216 315 q 183 163 183 97 q 183 67 196 59 q 208 51 263 51 l 446 55 q 453 55 492 60 q 549 67 549 22 q 549 -22 513 -35 q 478 -48 299 -48 q 160 -48 123 -19 q 85 10 85 88 q 85 175 124 340 q 122 351 122 357 q 122 378 137 394 q 167 529 175 575 q 182 621 182 655 q 186 720 199 744 q 212 767 244 767 q 265 767 278 752 q 403 784 491 784 q 566 784 621 772 q 675 760 688 747 q 702 735 702 717 q 702 693 684 675 q 667 657 645 657 q 639 657 630 660 q 549 683 475 683 q 394 683 281 653 z"},"s":{"x_min":0,"x_max":487,"ha":487,"o":"m 410 447 q 392 441 362 434 q 275 410 241 388 q 206 366 201 335 q 213 331 228 328 q 343 308 394 266 q 446 225 446 156 q 446 68 380 20 q 314 -29 205 -29 q 134 -29 78 -4 q 22 20 22 59 q 22 82 41 100 q 60 117 81 117 q 96 117 116 94 q 126 83 162 76 q 197 69 220 69 q 348 69 348 137 q 348 193 268 214 l 219 225 q 143 243 124 266 q 105 290 105 319 q 105 364 128 404 q 151 445 193 469 q 234 494 324 518 q 395 537 421 549 q 441 558 466 558 q 507 558 507 519 l 505 483 l 506 450 q 507 405 488 391 q 469 376 449 376 q 424 376 417 390 q 410 404 410 447 z"},">":{"x_min":0,"x_max":381,"ha":381,"o":"m 285 315 q 243 345 186 409 q 128 473 128 501 q 128 517 145 533 q 161 549 181 549 q 201 549 212 533 q 305 406 387 361 q 410 349 410 329 q 410 315 396 300 q 383 284 302 224 q 220 164 158 127 q 97 91 85 91 q 70 91 59 102 q 47 113 47 129 q 47 154 72 170 z"},"l":{"x_min":0,"x_max":274,"ha":274,"o":"m 246 384 l 186 64 q 178 22 172 9 q 166 -5 153 -13 q 141 -21 123 -21 q 82 -21 82 17 q 82 28 96 103 l 149 384 l 210 732 q 215 767 231 776 q 246 786 266 786 q 308 786 308 750 q 308 729 260 466 q 251 422 246 384 z"},"8":{"x_min":0,"x_max":610,"ha":610,"o":"m 226 382 q 160 426 160 500 q 160 600 238 672 q 317 745 418 745 q 596 745 596 594 q 596 542 578 490 q 559 439 473 398 q 524 369 552 334 q 579 299 579 239 q 579 115 500 44 q 420 -26 291 -26 q 194 -26 136 15 q 79 57 79 133 q 79 198 113 271 q 147 345 226 382 z m 354 435 q 428 454 464 483 q 500 512 500 578 q 500 620 479 639 q 458 658 404 658 q 330 658 294 613 q 258 568 258 520 q 258 460 354 435 z m 346 349 q 266 313 237 290 q 208 266 191 229 q 175 192 175 154 q 175 109 213 84 q 250 59 305 59 q 400 59 438 108 q 476 157 476 220 q 476 306 346 349 z"},"\\":{"x_min":0,"x_max":550,"ha":550,"o":"m 365 78 l 280 442 q 268 497 200 671 q 195 681 195 691 q 195 710 212 727 q 230 744 250 744 q 266 744 278 732 q 289 720 315 650 q 342 580 368 483 l 428 232 q 463 84 490 1 q 492 -9 492 -16 q 492 -35 475 -52 q 458 -69 438 -69 q 414 -69 400 -40 q 387 -10 365 78 z"},"e":{"x_min":0,"x_max":548,"ha":548,"o":"m 142 147 q 184 66 292 66 q 330 66 382 82 q 435 97 454 121 q 474 147 494 147 q 510 147 521 136 q 531 125 531 110 q 531 61 446 19 q 361 -22 278 -22 q 173 -22 115 27 q 56 76 56 159 q 56 279 138 395 q 219 510 349 510 q 435 510 480 481 q 525 452 525 399 q 525 356 496 325 q 466 294 432 277 q 397 260 342 236 z m 148 237 l 308 309 q 409 355 446 383 q 410 422 335 422 q 215 422 148 237 z"},"b":{"x_min":0,"x_max":593,"ha":593,"o":"m 159 9 q 139 -15 117 -15 q 100 -15 90 -5 q 79 6 79 22 q 79 29 83 47 q 98 115 108 204 q 119 292 138 416 l 183 691 q 187 717 206 743 q 225 769 250 769 q 283 769 283 738 q 283 725 272 695 q 270 690 270 687 l 231 455 q 324 513 393 513 q 482 513 534 453 q 586 393 586 303 q 586 167 497 73 q 407 -21 290 -21 q 215 -21 159 9 z m 214 350 l 200 265 l 177 109 q 231 83 253 77 q 275 72 305 72 q 384 72 440 134 q 497 196 497 288 q 497 347 465 383 q 434 420 377 420 q 315 420 214 350 z"},"%":{"x_min":0,"x_max":820,"ha":820,"o":"m 171 634 q 171 707 232 754 q 293 802 343 802 q 404 802 438 766 q 472 730 472 671 q 472 595 417 552 q 361 508 293 508 q 234 508 203 543 q 171 579 171 634 z m 253 646 q 253 590 307 590 q 330 590 359 604 q 389 617 389 660 q 389 720 328 720 q 307 720 280 704 q 253 687 253 646 z m 663 639 l 615 560 l 339 122 l 311 72 q 267 -2 254 -9 q 241 -15 231 -15 q 216 -15 206 -5 q 195 5 195 19 q 195 43 306 214 q 387 334 415 384 l 594 677 q 634 742 653 763 q 672 783 690 783 q 705 783 716 772 q 726 762 726 748 q 726 734 713 717 q 686 680 663 639 z m 476 112 q 476 187 528 248 q 581 309 660 309 q 722 309 766 274 q 811 238 811 185 q 811 115 755 53 q 700 -9 610 -9 q 548 -9 512 25 q 476 59 476 112 z m 559 125 q 559 72 635 72 q 684 72 706 106 q 728 141 728 172 q 728 195 704 211 q 680 227 646 227 q 606 227 582 193 q 559 160 559 125 z"},"m":{"x_min":0,"x_max":777,"ha":777,"o":"m 474 338 q 466 291 463 247 l 457 116 q 451 17 447 -9 q 442 -34 427 -47 q 411 -61 390 -61 q 350 -61 350 -22 q 350 -20 355 21 q 360 62 365 163 q 373 280 381 338 q 385 362 385 380 q 385 402 379 418 q 342 403 302 368 l 233 303 l 206 272 q 202 252 186 186 q 165 100 165 61 q 165 28 162 14 q 159 0 143 -12 q 127 -25 106 -25 q 65 -25 65 43 q 65 84 89 188 q 108 264 111 284 q 113 303 116 353 q 127 474 146 508 q 166 542 191 542 q 209 542 222 528 q 235 514 235 496 q 235 486 223 444 q 221 436 220 431 l 213 379 q 246 431 303 474 q 359 516 394 516 q 470 516 486 440 q 552 511 646 511 q 746 511 746 397 q 746 305 740 171 q 734 4 731 -3 q 727 -18 711 -30 q 696 -41 677 -41 q 637 -41 637 2 q 637 80 645 153 l 651 305 q 653 335 644 375 q 634 415 615 415 q 600 415 548 387 q 497 358 474 338 z"},"#":{"x_min":0,"x_max":843,"ha":843,"o":"m 215 282 l 307 484 l 176 484 q 137 484 137 520 q 137 570 216 570 l 345 570 q 363 608 377 647 q 407 730 423 750 q 440 770 472 770 q 485 770 494 760 q 503 749 503 735 q 503 720 479 664 l 439 570 l 677 570 l 748 728 q 766 770 801 770 q 837 770 837 740 q 837 711 771 570 l 866 570 q 910 570 910 542 q 910 482 847 482 l 801 484 l 729 484 l 646 282 l 746 282 q 815 282 815 246 q 815 192 765 192 l 608 192 l 539 34 q 517 -14 476 -14 q 441 -14 441 15 q 441 42 472 109 l 509 192 l 265 192 q 239 126 210 69 q 180 11 168 0 q 155 -10 134 -10 q 100 -10 100 19 q 100 39 119 79 l 172 192 l 79 192 q 45 192 45 225 q 45 257 64 270 q 84 282 103 282 z m 307 282 l 551 282 l 638 484 l 400 484 z"},",":{"x_min":0,"x_max":277,"ha":277,"o":"m 76 -132 q 76 -116 121 -38 q 166 39 180 54 q 194 69 210 69 q 226 69 236 58 q 247 46 247 32 q 247 23 232 -3 q 217 -30 181 -91 q 144 -152 135 -160 q 126 -168 111 -168 q 96 -168 86 -158 q 76 -147 76 -132 z"},"n":{"x_min":0,"x_max":523,"ha":523,"o":"m 232 413 q 331 522 418 522 q 523 522 523 391 q 523 359 518 317 l 502 223 q 495 186 495 118 q 495 17 482 -9 q 468 -35 433 -35 q 390 -35 393 11 l 396 118 q 397 161 408 228 q 418 294 425 318 q 430 348 430 370 q 430 423 402 423 q 337 423 271 338 q 204 254 189 188 q 186 175 182 161 q 172 127 170 95 l 165 34 q 163 7 147 -8 q 131 -23 108 -23 q 67 -23 67 15 l 74 95 q 77 143 105 253 q 132 366 139 439 l 144 480 q 146 503 162 518 q 178 533 201 533 q 246 533 240 470 z"},"h":{"x_min":0,"x_max":578,"ha":578,"o":"m 216 240 q 186 53 166 21 q 147 -11 118 -11 q 100 -11 87 1 q 75 13 75 30 q 75 42 83 58 q 89 71 100 129 l 170 560 l 184 627 q 190 659 190 689 q 190 740 204 761 q 218 782 248 782 q 289 782 289 739 q 289 670 263 547 q 250 481 243 440 l 237 397 q 333 504 436 504 q 487 504 518 482 q 548 459 548 391 q 548 363 544 326 l 533 233 l 527 131 q 526 121 526 77 q 526 34 527 25 q 528 17 523 4 q 519 -8 504 -19 q 489 -30 471 -30 q 446 -30 437 -13 q 428 4 428 70 q 428 191 441 254 q 456 323 456 353 q 456 406 421 406 q 375 406 331 375 q 287 344 216 240 z"},"z":{"x_min":0,"x_max":538,"ha":538,"o":"m 250 81 q 302 83 341 83 q 359 83 396 75 q 430 68 452 68 q 493 68 493 28 q 493 5 477 -12 q 461 -30 437 -30 q 413 -30 381 -23 q 349 -16 325 -16 q 219 -16 114 -36 q 103 -38 95 -38 q 54 -38 54 -5 q 54 25 86 51 q 234 168 419 410 q 355 406 326 406 q 288 406 225 411 q 161 417 152 428 q 142 440 142 455 q 142 479 158 498 q 174 516 198 516 q 225 516 269 510 q 317 504 341 504 q 374 504 440 509 q 518 514 542 514 q 578 514 578 487 q 578 446 528 395 q 474 340 392 244 q 283 113 250 81 z"},"B":{"x_min":0,"x_max":630,"ha":630,"o":"m 500 344 q 623 288 623 208 q 623 128 503 53 q 384 -23 149 -23 q 129 -23 113 -4 q 97 16 100 37 l 123 179 q 135 257 166 393 q 197 528 208 596 q 220 665 229 702 q 238 739 250 746 q 262 752 311 760 q 359 767 407 767 q 491 767 561 710 q 631 653 631 574 q 631 520 601 457 q 571 394 500 344 z m 316 664 l 301 579 l 263 390 l 335 384 q 367 384 419 404 q 471 425 502 469 q 532 514 532 556 q 532 596 489 632 q 445 667 392 667 q 339 667 316 664 z m 334 285 l 294 283 q 270 283 239 288 l 219 178 l 204 77 q 377 85 451 129 q 525 173 525 194 q 525 214 482 238 q 439 262 384 276 z"},"K":{"x_min":0,"x_max":611,"ha":611,"o":"m 245 257 l 203 -5 q 195 -54 153 -54 q 128 -54 116 -36 q 104 -17 104 2 q 104 32 166 355 q 203 545 227 697 q 230 718 247 733 q 264 748 284 748 q 303 748 314 736 q 325 723 325 706 q 325 692 295 550 q 276 459 266 402 q 335 458 439 558 l 605 720 q 624 739 645 739 q 664 739 676 726 q 688 714 688 696 q 688 643 319 325 q 364 268 475 148 l 519 105 q 539 86 574 73 q 611 60 611 38 q 611 16 595 -2 q 579 -20 558 -20 q 483 -20 368 110 z"},"R":{"x_min":0,"x_max":628,"ha":628,"o":"m 192 249 l 179 129 l 166 33 q 164 14 148 -1 q 132 -17 109 -17 q 90 -17 78 -5 q 67 7 67 24 l 82 148 q 98 288 128 397 q 161 511 166 604 q 170 667 176 690 q 181 713 202 732 q 224 752 251 750 l 368 741 q 457 734 546 659 q 635 584 635 487 q 635 322 398 250 q 480 203 543 144 q 606 84 606 52 q 606 31 589 13 q 571 -5 548 -5 q 530 -5 515 10 q 354 201 192 249 z m 268 646 l 260 551 q 259 535 253 504 q 247 473 235 431 l 209 333 l 252 333 q 395 333 465 378 q 536 423 536 470 q 536 528 475 580 q 414 632 339 640 z"},"T":{"x_min":0,"x_max":680,"ha":680,"o":"m 715 627 l 691 627 q 642 627 604 629 l 564 630 l 510 630 q 500 630 492 629 l 458 628 q 455 594 447 540 q 439 485 434 409 q 421 255 410 189 l 405 137 q 397 -4 333 -4 q 315 -4 302 8 q 289 20 289 37 q 289 45 295 67 q 302 90 310 160 q 315 216 318 233 q 328 294 337 429 q 343 498 349 545 l 357 622 l 288 620 q 203 617 157 628 q 112 639 112 667 q 112 694 128 712 q 145 730 168 730 q 177 730 196 729 q 280 721 309 721 q 361 721 443 727 q 491 730 527 730 q 560 730 615 728 l 680 727 q 701 727 724 727 q 747 728 759 718 q 771 708 771 690 q 771 666 755 646 q 740 627 715 627 z"},"P":{"x_min":0,"x_max":521,"ha":521,"o":"m 188 293 q 180 264 143 35 q 140 15 125 1 q 111 -12 92 -12 q 71 -12 61 1 q 51 15 54 35 l 77 178 q 90 258 118 380 q 120 386 160 583 l 170 650 q 187 768 241 757 q 273 767 358 767 q 447 767 513 709 q 580 651 580 574 q 580 461 483 374 q 387 287 247 287 q 232 287 188 293 z m 265 670 l 250 581 l 209 386 l 262 380 q 293 376 353 395 q 413 414 450 462 q 488 510 488 561 q 488 605 441 640 q 395 674 332 674 q 282 674 265 670 z"},"|":{"x_min":0,"x_max":421,"ha":421,"o":"m 383 794 l 238 -120 q 229 -177 187 -177 q 153 -177 153 -134 q 153 -108 172 12 l 296 794 q 299 812 314 824 q 329 837 348 837 q 391 837 383 794 z"},"t":{"x_min":0,"x_max":471,"ha":471,"o":"m 308 413 q 302 390 293 358 q 252 223 252 152 q 252 68 291 68 q 330 68 348 92 q 374 125 395 125 q 411 125 426 113 q 441 101 441 81 q 441 38 387 8 q 333 -23 280 -23 q 154 -23 154 134 q 154 220 192 344 q 203 376 212 409 q 106 415 91 427 q 75 439 75 466 q 75 487 90 502 q 104 516 130 516 l 231 508 q 234 521 235 537 q 236 554 239 574 l 247 635 q 250 655 265 668 q 281 682 302 682 q 343 682 343 616 q 343 597 337 567 l 327 508 q 393 516 397 516 q 448 516 467 506 q 486 496 486 469 q 486 445 469 431 q 453 416 430 416 l 382 418 q 346 418 308 413 z"},"M":{"x_min":0,"x_max":883,"ha":883,"o":"m 724 534 l 573 199 l 526 106 q 490 36 469 7 q 447 -21 417 -21 q 380 -21 368 62 l 350 265 q 343 356 338 526 l 302 438 l 192 141 l 167 64 q 151 17 141 -1 q 131 -19 121 -25 q 110 -32 96 -32 q 57 -32 57 8 q 57 28 73 87 q 89 146 123 222 l 202 418 l 257 572 q 289 661 317 702 q 345 742 378 742 q 408 742 418 703 q 428 663 430 528 q 430 376 452 141 q 548 337 645 572 l 671 644 q 708 749 763 749 q 814 749 814 610 l 812 461 q 812 307 827 176 l 838 92 q 844 44 844 20 q 844 -6 824 -24 q 805 -41 783 -41 q 735 -41 731 65 l 726 149 q 721 245 721 333 q 721 431 724 534 z"},"g":{"x_min":0,"x_max":531,"ha":531,"o":"m 498 210 l 440 -35 q 430 -75 414 -114 q 398 -153 375 -183 q 352 -212 322 -232 q 292 -252 250 -264 q 207 -275 149 -275 q -12 -275 -12 -223 q -12 -206 -1 -189 q 10 -172 38 -172 q 46 -172 61 -174 q 135 -188 176 -188 q 262 -188 309 -127 q 356 -67 383 85 q 312 -12 222 -12 q 143 -12 97 34 q 52 81 52 157 q 52 288 143 394 q 233 500 392 500 q 483 500 507 453 q 551 452 551 410 q 551 386 507 246 q 500 223 498 210 z m 374 422 q 269 422 208 344 q 148 267 148 166 q 148 69 236 69 q 280 69 329 114 q 378 159 397 206 q 417 253 454 392 q 418 422 374 422 z"},"j":{"x_min":0,"x_max":403,"ha":403,"o":"m 213 665 q 213 690 234 710 q 254 730 280 730 q 302 730 316 716 q 330 702 330 683 q 330 658 309 638 q 288 618 262 618 q 241 618 227 632 q 213 646 213 665 z m 173 179 l 198 448 q 200 468 217 490 q 234 511 257 511 q 275 511 290 499 q 304 486 303 474 l 274 192 l 239 -108 q 232 -169 181 -231 q 129 -292 63 -292 q -6 -292 -44 -226 q -82 -160 -82 -134 q -82 -113 -64 -96 q -46 -79 -23 -79 q 4 -79 32 -155 q 45 -194 79 -194 q 100 -194 121 -168 q 141 -142 149 -74 q 157 -6 173 179 z"},"i":{"x_min":0,"x_max":280,"ha":280,"o":"m 206 666 q 206 691 227 711 q 247 731 273 731 q 295 731 309 717 q 322 703 322 684 q 322 658 302 638 q 282 618 255 618 q 234 618 220 632 q 206 646 206 666 z m 135 -2 q 94 -2 94 36 l 114 185 q 121 244 142 336 q 160 420 165 451 q 174 500 221 500 q 262 500 262 462 q 262 449 238 336 q 215 233 209 185 q 200 99 190 48 q 181 -2 135 -2 z"},"y":{"x_min":0,"x_max":521,"ha":521,"o":"m 345 70 q 250 -83 213 -153 l 166 -248 q 149 -283 117 -283 q 99 -283 86 -272 q 74 -261 74 -243 q 74 -199 224 47 l 102 383 l 86 419 q 79 436 79 449 q 79 472 97 490 q 116 507 137 507 q 153 507 166 495 q 178 483 219 385 q 260 288 295 162 l 394 330 q 419 373 459 432 q 500 492 513 500 q 526 508 538 508 q 557 508 569 496 q 582 483 582 466 q 582 453 572 436 z"},"@":{"x_min":0,"x_max":931,"ha":931,"o":"m 504 261 q 441 209 396 209 q 345 209 306 248 q 266 286 266 332 q 266 419 354 505 q 441 590 538 590 q 578 590 578 547 q 578 510 521 495 q 411 463 389 415 q 367 366 367 346 q 367 333 379 321 q 390 309 408 309 q 454 309 502 388 q 547 456 572 456 q 609 456 609 415 q 609 404 597 357 q 593 346 593 336 q 593 312 611 306 q 629 301 661 301 q 803 301 803 473 q 803 571 726 634 q 649 696 536 696 q 377 696 278 568 q 180 440 180 288 q 180 178 252 102 q 324 26 448 26 q 488 26 540 42 l 629 73 q 652 81 659 81 q 676 81 688 68 q 700 54 700 36 q 700 -11 608 -40 q 517 -68 434 -68 q 351 -68 268 -29 q 186 10 132 93 q 79 177 79 279 q 79 386 130 504 q 181 623 291 709 q 401 796 552 796 q 706 796 805 708 q 904 621 904 492 q 904 369 839 285 q 774 201 645 201 q 542 201 504 261 z"},".":{"x_min":0,"x_max":249,"ha":249,"o":"m 70 5 q 70 32 92 54 q 114 76 141 76 q 164 76 178 61 q 193 45 193 24 q 193 -3 171 -24 q 148 -45 121 -45 q 98 -45 84 -30 q 70 -15 70 5 z"},"p":{"x_min":0,"x_max":535,"ha":535,"o":"m 167 -1 l 129 -235 q 121 -284 74 -284 q 53 -284 41 -270 q 30 -256 33 -235 l 97 155 q 110 234 120 350 l 129 449 q 131 479 151 508 q 170 537 198 537 q 235 537 235 499 q 235 480 223 446 q 315 504 388 504 q 536 504 536 319 q 536 166 461 74 q 386 -17 272 -17 q 223 -17 167 -1 z m 215 334 q 208 261 185 102 q 232 81 287 81 q 361 81 400 142 q 439 203 439 307 q 439 406 373 406 q 339 406 306 394 q 272 381 215 334 z"},"X":{"x_min":0,"x_max":724,"ha":724,"o":"m 499 353 l 582 196 q 626 113 671 43 q 680 31 680 18 q 680 -5 662 -23 q 644 -41 621 -41 q 591 -41 536 67 l 487 167 l 427 277 l 229 83 l 123 -18 q 106 -34 76 -34 q 58 -34 46 -21 q 34 -9 34 10 q 34 32 52 50 l 156 148 l 373 361 q 323 445 281 505 l 237 582 q 215 621 185 652 q 169 666 169 685 q 169 707 187 725 q 205 743 227 743 q 263 743 304 670 q 345 597 447 437 l 583 592 q 716 743 752 743 q 771 743 783 730 q 795 717 795 699 q 795 679 776 659 q 702 584 655 528 l 580 438 q 543 394 499 353 z"},"*":{"x_min":0,"x_max":530,"ha":530,"o":"m 295 641 q 303 722 307 739 q 311 755 325 767 q 339 778 357 778 q 395 778 395 743 l 384 652 q 501 670 530 670 q 564 670 564 634 q 564 600 543 590 q 522 581 398 566 q 481 475 481 429 q 481 412 465 396 q 450 381 429 381 q 411 381 398 399 q 381 430 319 514 q 201 400 165 400 q 149 400 138 411 q 127 422 127 438 q 127 461 155 482 q 182 502 253 562 q 147 598 133 608 q 120 618 120 635 q 120 654 135 671 q 150 688 170 688 q 183 688 295 641 z"},"Y":{"x_min":0,"x_max":635,"ha":635,"o":"m 326 229 q 255 342 240 407 q 227 463 188 539 q 162 591 142 632 q 122 674 122 687 q 122 708 140 725 q 158 743 180 743 q 203 743 217 720 l 247 659 q 297 558 313 521 q 329 484 338 443 q 347 406 389 333 l 544 605 l 596 684 q 623 725 634 734 q 645 742 664 742 q 682 742 695 730 q 707 718 707 701 q 707 678 652 601 q 642 586 629 567 l 513 360 q 471 284 388 156 l 310 47 l 276 -6 q 257 -34 228 -34 q 210 -34 198 -22 q 185 -10 185 7 q 185 26 247 119 z"},"c":{"x_min":0,"x_max":514,"ha":514,"o":"m 350 77 l 411 107 q 428 115 434 115 q 449 115 460 104 q 470 92 470 75 q 470 35 392 2 q 313 -31 271 -31 q 176 -31 121 22 q 65 75 65 154 q 65 268 161 394 q 256 519 351 519 q 404 519 461 494 q 518 469 518 433 q 518 414 503 396 q 487 379 468 379 q 449 379 427 403 q 406 427 336 427 q 285 427 219 333 q 154 238 154 171 q 154 123 189 92 q 224 61 285 61 q 314 61 350 77 z"},"!":{"x_min":0,"x_max":238,"ha":238,"o":"m 190 197 q 184 153 140 153 q 103 153 103 185 l 106 222 q 112 273 122 332 l 160 567 q 188 745 194 758 q 199 770 210 777 q 222 784 240 784 q 283 784 276 740 z m 108 -32 q 91 -32 76 -10 q 61 11 61 30 q 61 50 77 65 q 94 80 114 80 q 132 80 147 59 q 161 39 161 19 q 161 -3 144 -18 q 127 -32 108 -32 z"},"/":{"x_min":0,"x_max":512,"ha":512,"o":"m 582 724 l 506 591 q 427 454 380 383 l 241 181 l 122 -15 q 104 -44 78 -44 q 62 -44 50 -33 q 39 -23 39 -8 q 39 31 237 317 q 375 518 429 621 q 520 794 553 794 q 567 794 579 784 q 591 774 591 758 q 591 745 582 724 z"},"[":{"x_min":0,"x_max":376,"ha":376,"o":"m 278 646 q 274 602 265 547 l 146 -108 l 190 -106 l 208 -106 l 274 -109 q 311 -109 311 -147 q 311 -169 297 -187 q 283 -204 259 -204 q 245 -204 217 -202 l 192 -201 q 178 -201 123 -204 q 53 -208 53 -159 q 53 -132 116 197 l 177 541 l 192 688 l 194 695 q 208 742 244 742 l 263 742 q 274 742 288 741 l 314 740 l 388 742 q 427 742 427 705 q 427 668 403 656 q 380 643 278 646 z"},"6":{"x_min":0,"x_max":610,"ha":610,"o":"m 258 427 q 348 465 390 465 q 490 465 542 418 q 595 371 595 286 q 595 154 511 59 q 427 -35 298 -35 q 100 -35 100 182 q 100 316 167 445 q 235 575 369 681 l 423 728 q 459 760 479 760 q 496 760 508 748 q 521 736 521 719 q 521 696 460 645 l 345 548 q 301 511 258 427 z m 213 313 q 197 255 197 200 q 197 50 313 50 q 400 50 448 117 q 497 184 497 263 q 497 366 361 366 q 339 366 311 360 q 283 354 213 313 z"},"r":{"x_min":0,"x_max":480,"ha":480,"o":"m 505 361 q 502 341 487 321 q 472 300 446 300 q 411 300 411 334 l 414 361 q 414 369 415 382 l 420 423 q 274 408 202 284 l 161 17 q 153 -33 105 -33 q 62 -33 70 17 l 124 359 q 143 476 155 490 q 167 505 192 505 q 231 505 231 450 q 231 438 229 424 q 335 515 451 515 q 514 515 514 438 q 514 419 510 395 z"},"2":{"x_min":0,"x_max":610,"ha":610,"o":"m 187 93 l 290 102 q 355 108 439 108 q 479 108 511 93 q 543 79 543 54 q 543 35 527 17 q 511 -1 489 -1 q 483 -1 457 7 q 430 14 424 14 q 398 14 348 11 q 305 8 273 8 q 253 8 215 3 q 185 -1 158 -1 l 128 2 q 88 2 88 48 q 88 110 112 170 q 137 231 173 267 q 209 303 355 394 q 471 464 496 512 q 520 560 520 587 q 520 613 487 635 q 455 656 421 656 q 376 656 331 630 l 254 576 q 229 559 217 559 q 172 559 172 591 q 172 633 268 691 q 363 750 436 750 q 515 750 569 708 q 622 667 622 606 q 622 556 586 480 q 550 404 397 316 q 288 253 243 210 q 198 166 187 93 z"},"{":{"x_min":0,"x_max":366,"ha":366,"o":"m 167 280 q 209 214 209 169 q 209 147 197 112 q 183 66 183 31 q 183 -11 196 -53 q 209 -96 236 -96 q 276 -96 292 -101 q 307 -106 307 -129 q 307 -150 294 -169 q 282 -188 222 -188 q 155 -188 122 -126 q 89 -64 89 11 q 89 54 104 104 q 115 145 115 156 q 115 188 80 217 q 42 247 42 268 q 42 291 86 329 q 130 367 160 375 l 189 583 q 204 689 260 741 q 316 793 383 793 q 411 793 433 780 q 455 766 455 744 q 455 706 385 702 q 326 699 305 668 q 283 637 274 562 q 260 441 254 403 q 248 364 221 328 q 194 292 167 280 z"},"9":{"x_min":0,"x_max":610,"ha":610,"o":"m 483 300 q 395 258 335 258 q 246 258 187 308 q 127 359 127 441 q 127 568 210 659 q 293 750 444 750 q 538 750 591 693 q 645 636 645 541 q 645 425 563 262 q 482 99 333 26 q 183 -46 138 -46 q 100 -46 100 -6 q 100 29 140 46 l 226 74 q 280 92 338 131 q 396 169 455 258 z m 527 422 q 547 479 547 520 q 547 583 512 625 q 477 667 417 667 q 313 667 268 603 q 222 539 222 467 q 222 415 261 382 q 299 350 365 350 q 449 350 527 422 z"}," ":{"x_min":0,"x_max":299,"ha":299,"o":""},"I":{"x_min":0,"x_max":546,"ha":546,"o":"m 407 625 q 366 447 348 315 q 321 118 313 101 l 468 103 q 487 103 498 92 q 509 80 509 63 q 509 40 493 21 q 477 3 452 3 q 426 3 370 1 l 322 0 q 244 -1 189 -9 q 126 -18 92 -18 q 73 -18 61 -6 q 50 6 50 23 q 50 46 67 64 q 84 83 108 83 q 146 83 214 93 q 229 140 248 311 q 258 406 311 629 l 183 625 q 166 625 154 636 q 142 647 142 665 q 142 691 155 707 q 168 723 195 726 q 222 729 344 729 q 412 729 496 720 q 579 710 593 707 q 606 704 614 694 q 621 685 621 668 q 621 640 603 624 q 584 608 562 608 q 528 608 485 615 z"},"H":{"x_min":0,"x_max":768,"ha":768,"o":"m 644 322 q 552 319 435 297 l 223 257 q 219 225 194 132 q 170 42 166 7 q 162 -13 147 -27 q 131 -41 111 -41 q 71 -41 71 -3 q 71 22 104 162 q 137 298 148 397 l 155 445 q 158 465 159 479 q 162 499 168 528 q 201 675 206 711 q 209 731 225 745 q 241 759 261 759 q 301 759 301 719 q 301 706 277 594 q 257 506 253 477 l 237 354 l 452 393 q 584 417 667 417 q 684 490 706 628 q 713 670 735 712 q 756 755 783 755 q 801 755 813 744 q 825 732 825 715 q 825 705 816 688 q 805 667 797 609 q 786 513 756 395 q 732 296 726 262 q 720 227 711 138 q 705 52 700 28 q 696 4 680 -8 q 665 -21 645 -21 q 628 -21 617 -9 q 605 3 605 20 l 618 138 q 628 238 638 286 q 641 304 644 322 z"},"4":{"x_min":0,"x_max":610,"ha":610,"o":"m 472 33 q 465 -13 419 -13 q 378 -13 378 34 q 378 42 388 105 l 406 216 l 192 221 q 111 223 85 229 q 60 234 60 255 q 60 278 96 316 l 145 366 l 442 716 q 481 762 532 762 q 587 762 580 714 l 515 308 l 524 309 q 546 312 582 304 q 619 296 619 267 q 619 206 500 213 z m 471 626 q 332 447 217 315 l 421 310 z"},"~":{"x_min":0,"x_max":598,"ha":598,"o":"m 370 421 l 414 356 q 440 317 476 317 q 495 317 522 376 q 550 436 582 436 q 599 436 609 426 q 620 416 620 401 q 620 352 571 290 q 522 228 459 228 q 425 228 391 246 q 356 263 316 333 q 295 369 285 369 q 245 369 174 277 q 158 252 132 252 q 116 252 105 262 q 94 273 94 288 q 94 322 162 389 q 229 456 299 456 q 341 456 370 421 z"},"D":{"x_min":0,"x_max":722,"ha":722,"o":"m 141 -3 l 136 -3 q 116 -3 104 9 q 93 21 93 38 q 93 50 105 111 l 140 289 q 151 350 191 625 l 201 692 q 205 718 229 739 q 253 760 273 760 q 284 760 347 727 q 415 690 427 687 q 554 640 636 545 q 719 450 719 339 q 719 238 659 141 q 599 44 514 -2 q 429 -48 297 -48 q 259 -48 210 -35 q 162 -22 141 -3 z m 291 632 l 250 352 l 200 85 q 201 84 203 83 q 249 50 312 50 q 438 50 497 95 q 556 140 587 200 q 618 261 618 323 q 618 386 583 439 q 548 493 489 529 q 430 565 291 632 z"},"^":{"x_min":0,"x_max":581,"ha":581,"o":"m 410 700 q 260 548 227 548 q 211 548 200 560 q 189 571 189 588 q 189 608 209 624 q 247 654 383 789 q 401 804 417 804 q 451 804 492 752 q 502 738 521 716 l 584 633 q 594 620 594 609 q 594 591 578 575 q 562 559 542 559 q 524 559 513 573 q 479 620 410 700 z"},"0":{"x_min":0,"x_max":610,"ha":610,"o":"m 64 257 q 64 472 166 615 q 268 759 418 759 q 525 759 579 685 q 633 612 633 499 q 633 404 593 267 q 552 130 473 55 q 394 -19 279 -19 q 64 -19 64 257 z m 160 266 q 160 75 294 75 q 411 75 473 215 q 535 355 535 499 q 535 665 403 665 q 301 665 230 553 q 160 441 160 266 z"},"F":{"x_min":0,"x_max":607,"ha":607,"o":"m 289 649 l 254 438 q 353 463 400 463 q 445 463 511 458 q 578 454 585 442 q 593 429 593 416 q 593 389 576 372 q 560 354 536 354 q 501 354 459 358 q 419 362 385 362 q 349 362 235 334 l 179 -2 q 175 -24 158 -38 q 142 -52 122 -52 q 102 -52 91 -40 q 80 -28 80 -10 q 80 2 101 118 l 159 450 q 182 582 189 640 q 192 662 195 678 l 199 705 q 203 727 218 741 q 233 756 255 756 q 271 756 283 747 q 399 768 479 768 q 547 768 621 748 q 695 728 695 698 q 695 679 678 661 q 662 642 639 642 q 628 642 621 646 q 564 668 463 668 q 398 668 289 649 z"},"`":{"x_min":0,"x_max":556,"ha":556,"o":"m 292 596 l 254 668 q 236 703 205 731 q 191 743 191 760 q 191 780 208 796 q 224 811 242 811 q 271 811 324 735 q 378 659 378 625 q 378 606 361 591 q 345 575 325 575 q 303 575 292 596 z"},"k":{"x_min":0,"x_max":540,"ha":540,"o":"m 300 243 q 279 228 202 180 q 183 92 174 32 q 170 10 154 -3 q 139 -17 118 -17 q 77 -17 77 28 q 77 47 103 170 q 122 250 155 442 q 188 634 192 682 q 197 726 200 742 q 204 758 219 771 q 234 783 255 783 q 295 783 295 743 l 288 681 q 284 641 282 628 l 254 471 q 234 362 226 301 q 288 343 371 412 l 496 523 q 515 540 534 540 q 551 540 563 527 q 575 514 575 496 q 575 482 567 471 q 560 459 502 406 q 444 353 384 306 l 468 161 q 521 69 521 33 q 521 13 503 -3 q 485 -20 463 -20 q 436 -20 426 8 q 405 63 367 125 z"},"u":{"x_min":0,"x_max":520,"ha":520,"o":"m 510 285 l 493 179 q 476 77 474 42 q 471 6 467 -5 q 462 -16 447 -28 q 432 -39 414 -39 q 376 -39 374 7 q 308 -24 228 -24 q 160 -24 123 6 q 85 36 85 91 q 85 164 93 249 q 100 333 122 414 q 143 495 158 508 q 173 521 194 521 q 214 521 226 510 q 237 500 237 483 q 237 467 218 401 q 202 350 191 274 q 181 197 181 142 q 181 113 184 93 q 212 75 243 75 q 308 75 386 96 l 414 290 q 417 315 434 401 q 450 487 467 502 q 483 518 507 518 q 529 518 540 504 q 551 491 547 470 z"},"]":{"x_min":0,"x_max":376,"ha":376,"o":"m 180 -201 l 162 -201 l 93 -204 q 58 -204 58 -166 q 58 -143 73 -126 q 88 -109 107 -109 q 121 -109 151 -107 l 176 -106 l 194 -106 l 235 -108 l 326 547 q 333 604 346 646 q 250 643 230 651 q 211 659 211 683 q 211 742 265 742 l 319 740 l 338 740 q 350 740 364 741 l 390 742 q 455 745 444 695 l 441 688 l 412 541 q 399 481 365 197 q 326 -102 315 -153 q 304 -204 245 -204 z"},"U":{"x_min":0,"x_max":737,"ha":737,"o":"m 264 649 l 219 362 q 210 307 210 263 q 210 66 378 66 q 573 66 653 564 l 667 651 q 681 734 730 734 q 771 734 771 689 q 771 679 769 667 l 750 546 q 662 -20 368 -20 q 239 -20 175 43 q 111 107 111 251 q 111 309 138 489 q 166 669 185 700 q 205 731 231 731 q 267 731 267 682 q 267 667 264 649 z"},"o":{"x_min":0,"x_max":526,"ha":526,"o":"m 59 167 q 59 296 143 401 q 227 506 355 506 q 429 506 468 455 q 506 403 506 318 q 506 179 428 75 q 350 -29 234 -29 q 155 -29 107 27 q 59 83 59 167 z m 330 407 q 253 407 205 332 q 156 256 156 180 q 156 129 182 99 q 209 70 250 70 q 315 70 364 128 q 414 187 414 302 q 414 407 333 407 z"},"N":{"x_min":0,"x_max":797,"ha":797,"o":"m 257 559 l 219 336 q 208 270 191 144 q 168 -39 111 -39 q 88 -39 75 -25 q 63 -10 63 7 q 63 23 77 76 q 81 91 102 206 q 124 321 129 360 l 145 474 q 156 554 159 606 l 166 690 q 169 719 193 738 q 217 757 240 757 q 265 757 295 701 q 475 343 677 125 q 681 138 687 187 l 712 373 q 721 435 727 498 q 732 562 732 589 q 732 602 727 641 q 725 665 725 677 q 725 749 786 749 q 839 749 839 623 q 839 538 816 407 l 774 161 q 755 44 741 13 q 726 -19 686 -19 q 664 -19 627 16 q 590 51 485 196 q 380 341 257 559 z"},"+":{"x_min":0,"x_max":480,"ha":480,"o":"m 307 272 l 288 157 q 281 113 237 113 q 195 113 201 157 l 218 270 q 160 267 134 267 q 64 267 64 305 q 64 331 81 343 q 97 354 148 354 q 174 354 232 357 l 240 414 q 247 460 260 486 q 273 511 301 511 q 318 511 329 501 q 340 491 340 476 q 340 466 330 427 q 328 419 327 415 l 319 359 l 355 357 q 358 357 403 359 q 489 364 489 321 q 489 302 474 285 q 460 269 439 269 l 404 273 l 355 272 q 310 271 307 272 z"},"G":{"x_min":0,"x_max":680,"ha":680,"o":"m 644 295 q 591 148 479 57 q 368 -34 236 -34 q 32 -34 32 158 q 32 250 75 366 q 118 481 193 575 q 269 670 335 719 q 402 767 468 767 q 512 767 584 736 q 657 705 657 667 q 657 646 640 627 q 623 609 600 609 q 589 609 571 621 q 505 667 452 667 q 381 667 256 504 q 131 341 131 172 q 131 110 161 88 q 191 66 252 66 q 342 66 418 126 q 494 186 533 289 q 396 282 293 237 q 280 231 270 231 q 252 231 241 244 q 229 257 229 274 q 229 304 262 326 q 295 349 388 370 q 480 391 636 391 q 655 391 667 379 q 680 367 680 350 q 680 311 644 295 z"},"q":{"x_min":0,"x_max":520,"ha":520,"o":"m 402 -34 q 375 -132 360 -223 q 357 -244 342 -258 q 327 -271 305 -271 q 263 -271 263 -230 q 263 -207 276 -168 l 318 -6 q 270 -17 256 -17 q 156 -17 100 31 q 43 80 43 160 q 43 227 80 312 q 116 398 199 459 q 283 519 397 519 q 431 519 440 498 q 463 517 480 517 q 497 517 509 504 q 521 492 521 473 q 521 458 502 362 q 483 266 455 154 z m 424 435 q 418 432 406 432 l 361 436 q 324 436 265 399 q 206 362 174 294 q 143 226 143 174 q 143 128 172 98 q 202 68 261 68 q 318 68 348 130 q 378 192 397 304 z"},"d":{"x_min":0,"x_max":587,"ha":587,"o":"m 428 30 q 351 -22 269 -22 q 176 -22 122 34 q 67 91 67 174 q 67 303 151 406 q 234 509 365 509 q 444 509 490 458 q 536 691 550 734 q 564 778 603 778 q 639 778 639 744 q 639 711 572 431 q 548 329 533 217 q 519 105 520 42 l 520 36 q 520 20 504 3 q 488 -14 465 -14 q 436 -14 428 30 z m 432 141 l 443 225 l 463 339 q 439 418 354 418 q 249 418 203 345 q 156 273 156 198 q 156 147 191 108 q 227 70 283 70 q 359 70 432 141 z"},"1":{"x_min":0,"x_max":450,"ha":450,"o":"m 146 0 q 106 0 93 6 q 79 13 79 33 q 79 91 164 91 l 207 89 q 212 130 214 159 q 221 249 261 416 q 295 552 301 605 q 229 554 210 554 q 191 554 180 566 q 169 578 169 595 q 169 623 221 658 q 249 677 304 718 q 354 761 393 761 q 421 761 421 735 q 421 722 407 672 q 400 644 395 580 q 391 536 354 393 q 313 244 309 158 q 305 106 302 92 l 354 93 q 372 93 383 82 q 395 71 395 54 q 395 31 379 16 q 363 0 340 0 z"},"5":{"x_min":0,"x_max":610,"ha":610,"o":"m 292 650 q 289 626 249 488 q 324 541 435 541 q 523 541 567 486 q 611 431 611 343 q 611 191 515 80 q 420 -31 268 -31 q 175 -31 125 13 q 76 57 76 93 q 76 114 94 130 q 113 146 133 146 q 154 146 167 125 q 191 89 212 76 q 232 63 282 63 q 378 63 447 140 q 515 218 515 328 q 515 447 420 447 q 375 447 342 436 q 309 426 273 395 l 211 336 q 188 314 163 314 q 146 314 135 326 q 124 338 124 354 q 124 361 131 389 q 196 641 196 661 q 196 671 192 688 q 188 708 188 713 q 188 748 244 748 q 249 748 290 746 l 473 749 l 553 747 q 562 747 580 750 q 598 754 607 754 q 624 754 636 742 q 648 730 648 713 q 648 652 524 652 l 507 652 q 497 652 486 653 l 467 654 l 458 654 l 375 653 z"}}}
